HIERARCHY
ROOT Hips
{
	OFFSET 0.00000 0.00000 0.00000
	CHANNELS 6 Xposition Yposition Zposition Zrotation Yrotation Xrotation 
	JOINT LHipJoint
	{
		OFFSET 0 0 0
		CHANNELS 3 Zrotation Yrotation Xrotation
		JOINT LeftUpLeg
		{
			OFFSET 1.58895 -1.83665 0.71753
			CHANNELS 3 Zrotation Yrotation Xrotation
			JOINT LeftLeg
			{
				OFFSET 2.50528 -6.88321 0.00000
				CHANNELS 3 Zrotation Yrotation Xrotation
				JOINT LeftFoot
				{
					OFFSET 2.63244 -7.23257 0.00000
					CHANNELS 3 Zrotation Yrotation Xrotation
					JOINT LeftToeBase
					{
						OFFSET 0.23691 -0.65090 1.72750
						CHANNELS 3 Zrotation Yrotation Xrotation
						End Site
						{
							OFFSET 0.00000 -0.00000 0.92561
						}
					}
				}
			}
		}
	}
	JOINT RHipJoint
	{
		OFFSET 0 0 0
		CHANNELS 3 Zrotation Yrotation Xrotation
		JOINT RightUpLeg
		{
			OFFSET -1.51435 -1.83665 0.71753
			CHANNELS 3 Zrotation Yrotation Xrotation
			JOINT RightLeg
			{
				OFFSET -2.54551 -6.99375 0.00000
				CHANNELS 3 Zrotation Yrotation Xrotation
				JOINT RightFoot
				{
					OFFSET -2.66027 -7.30903 0.00000
					CHANNELS 3 Zrotation Yrotation Xrotation
					JOINT RightToeBase
					{
						OFFSET -0.22981 -0.63138 2.03959
						CHANNELS 3 Zrotation Yrotation Xrotation
						End Site
						{
							OFFSET -0.00000 -0.00000 1.07060
						}
					}
				}
			}
		}
	}
	JOINT LowerBack
	{
		OFFSET 0 0 0
		CHANNELS 3 Zrotation Yrotation Xrotation
		JOINT Spine
		{
			OFFSET -0.02651 1.86275 -0.11152
			CHANNELS 3 Zrotation Yrotation Xrotation
			JOINT Spine1
			{
				OFFSET 0.01019 1.86224 0.04087
				CHANNELS 3 Zrotation Yrotation Xrotation
				JOINT Neck
				{
					OFFSET 0 0 0
					CHANNELS 3 Zrotation Yrotation Xrotation
					JOINT Neck1
					{
						OFFSET -0.01926 1.80512 0.08867
						CHANNELS 3 Zrotation Yrotation Xrotation
						JOINT Head
						{
							OFFSET 0.05516 1.76451 -0.38475
							CHANNELS 3 Zrotation Yrotation Xrotation
							End Site
							{
								OFFSET 0.01592 1.82587 -0.14001
							}
						}
					}
				}
				JOINT LeftShoulder
				{
					OFFSET 0 0 0
					CHANNELS 3 Zrotation Yrotation Xrotation
					JOINT LeftArm
					{
						OFFSET 3.47116 1.51376 0.14491
						CHANNELS 3 Zrotation Yrotation Xrotation
						JOINT LeftForeArm
						{
							OFFSET 4.78095 -0.00000 0.00000
							CHANNELS 3 Zrotation Yrotation Xrotation
							JOINT LeftHand
							{
								OFFSET 3.58615 -0.00000 -0.00000
								CHANNELS 3 Zrotation Yrotation Xrotation
								JOINT LeftFingerBase
								{
									OFFSET 0 0 0
									CHANNELS 3 Zrotation Yrotation Xrotation
									JOINT LeftHandIndex1
									{
										OFFSET 0.65981 -0.00000 0.00000
										CHANNELS 3 Zrotation Yrotation Xrotation
										End Site
										{
											OFFSET 0.53196 -0.00000 0.00000
										}
									}
								}
								JOINT LThumb
								{
									OFFSET 0 0 0
									CHANNELS 3 Zrotation Yrotation Xrotation
									End Site
									{
										OFFSET 0.54008 -0.00000 0.54008
									}
								}
							}
						}
					}
				}
				JOINT RightShoulder
				{
					OFFSET 0 0 0
					CHANNELS 3 Zrotation Yrotation Xrotation
					JOINT RightArm
					{
						OFFSET -3.31725 1.61216 0.35156
						CHANNELS 3 Zrotation Yrotation Xrotation
						JOINT RightForeArm
						{
							OFFSET -4.48913 -0.00000 0.00000
							CHANNELS 3 Zrotation Yrotation Xrotation
							JOINT RightHand
							{
								OFFSET -3.70510 -0.00000 0.00000
								CHANNELS 3 Zrotation Yrotation Xrotation
								JOINT RightFingerBase
								{
									OFFSET 0 0 0
									CHANNELS 3 Zrotation Yrotation Xrotation
									JOINT RightHandIndex1
									{
										OFFSET -0.44914 -0.00000 0.00000
										CHANNELS 3 Zrotation Yrotation Xrotation
										End Site
										{
											OFFSET -0.36211 -0.00000 0.00000
										}
									}
								}
								JOINT RThumb
								{
									OFFSET 0 0 0
									CHANNELS 3 Zrotation Yrotation Xrotation
									End Site
									{
										OFFSET -0.36763 -0.00000 0.36763
									}
								}
							}
						}
					}
				}
			}
		}
	}
}
MOTION
Frames: 12
Frame Time: .0083333
-1.1267 18.1023 5.7873 0 0 0 0 0 0 -21 0 0 0 0 0 0 0 0 0 0 0 0 0 0 21 0 0 0 0 0 0 0 0 0 0 0 0 0 0 0 0 0 0 0 0 0 0 -16 0 0 21 0 0 11 0 0 0 -8 0 0 0 0 0 0 0 0 0 0 0 0 0 0 0 0 0 0 0 0 8 0 0 0 0 0 0 0 0 0 0 0 0 0 0 0 0 0
-1.1267 18.1023 5.7873 -4.9474 -1.7401 -1.3691 0.0000 0.0000 0.0000 -11.4374 -1.8448 21.9519 1.0940 -6.6469 -18.6733 -1.1009 18.7309 -11.8983 0.1166 -2.2012 -6.0620 0.0000 0.0000 0.0000 24.2286 10.8062 16.0259 0.0000 -0.0000 0.0000 -2.2010 -10.6548 -33.4762 -0.1552 -2.5388 6.9972 2.6931 1.2762 2.1821 0.8068 1.7968 -0.7361 -0.7485 0.8692 -1.9216 -0.5645 -2.4447 -12.7157 1.5087 -3.5350 17.3622 0.2282 -1.5869 7.4714 -0.0000 -0.0000 0.0000 -93.0566 10.2896 18.7526 20.0124 -30.6572 -5.5377 -0.0000 -0.0000 10.2863 4.3013 -26.8499 -1.9456 -7.1250 0.0000 -0.0000 -15.3352 3.8677 14.8164 -0.0000 -0.0000 0.0000 89.8053 -19.1267 22.7526 -24.9666 36.1699 -8.2702 0.0000 0.0000 7.8702 -7.6617 -28.7524 3.7024 7.1250 -0.0000 -0.0000 25.2792 -57.1033 -7.8357
-1.1262 18.1023 5.7863 -4.8830 -1.7264 -1.3856 0.0000 0.0000 0.0000 -11.5060 -1.8093 21.9071 1.0866 -6.6251 -18.6093 -1.0923 18.6620 -11.8579 0.1139 -2.1759 -5.9920 0.0000 0.0000 0.0000 24.1587 10.7907 16.0355 0.0000 0.0000 -0.0000 -2.1943 -10.6914 -33.4625 -0.1479 -2.4783 6.8295 2.6389 1.2636 2.1635 0.7757 1.7766 -0.7137 -0.7486 0.8602 -1.8895 -0.4854 -2.4950 -12.9083 1.3416 -3.5921 17.5457 0.1511 -1.6217 7.5616 -0.0000 -0.0000 0.0000 -93.0485 10.2499 18.6920 20.0176 -30.6636 -5.5403 -0.0000 -0.0000 10.3208 4.2980 -26.8669 -1.9453 -7.1250 0.0000 -0.0000 -15.3372 3.8517 14.8232 -0.0000 -0.0000 0.0000 89.8092 -19.0899 22.8059 -24.9729 36.1763 -8.2739 0.0000 0.0000 7.9028 -7.6739 -28.6490 3.6962 7.1250 -0.0000 -0.0000 25.1909 -57.0131 -7.7499
-1.1258 18.1026 5.7851 -4.8465 -1.7218 -1.3929 0.0000 0.0000 0.0000 -11.5495 -1.8086 21.8889 1.0836 -6.6161 -18.5828 -1.0887 18.6350 -11.8510 0.1105 -2.1428 -5.9006 0.0000 0.0000 0.0000 24.1187 10.7868 16.0380 0.0000 -0.0000 0.0000 -2.1932 -10.7172 -33.4735 -0.1474 -2.4745 6.8189 2.6591 1.2785 2.2832 0.7240 1.8021 -0.7900 -0.8180 0.8699 -2.0320 -0.5228 -2.4513 -12.7688 1.4904 -3.5527 17.5088 0.2120 -1.5926 7.5280 -0.0000 -0.0000 0.0000 -92.9097 10.3428 18.9845 19.9550 -30.5881 -5.5084 -0.0000 -0.0000 10.1133 4.3697 -26.8351 -1.9756 -7.1250 0.0000 -0.0000 -15.2951 3.8760 14.7721 -0.0000 -0.0000 0.0000 89.7730 -19.1568 23.0581 -24.8867 36.0880 -8.2231 0.0000 0.0000 7.7009 -7.8131 -28.5358 3.7503 7.1250 -0.0000 -0.0000 24.9701 -56.9402 -7.6310
-1.1261 18.1030 5.7839 -4.8403 -1.7230 -1.3951 0.0000 0.0000 0.0000 -11.5702 -1.8637 21.8927 1.0797 -6.6046 -18.5490 -1.0913 18.6684 -11.9255 0.1150 -2.1866 -6.0216 0.0000 0.0000 0.0000 24.1122 10.7881 16.0385 0.0000 -0.0000 0.0000 -2.1977 -10.7083 -33.4930 -0.1503 -2.4983 6.8849 2.7531 1.3144 2.5337 0.6462 1.8642 -0.9690 -0.9620 0.8934 -2.3494 -0.5332 -2.4258 -12.5225 1.6423 -3.5450 17.5026 0.2673 -1.5773 7.4855 0.0000 0.0000 0.0000 -92.5245 10.6277 19.9228 19.8125 -30.4157 -5.4361 -0.0000 -0.0000 9.3179 4.6345 -26.7548 -2.0899 -7.1250 0.0000 -0.0000 -15.1395 3.9301 14.5946 0.0000 0.0000 0.0000 89.6986 -19.3181 23.4750 -24.6519 35.8461 -8.0852 0.0000 0.0000 7.1204 -8.0146 -28.6391 3.8607 7.1250 -0.0000 -0.0000 24.8454 -57.0749 -7.6721
-1.1261 18.1028 5.7835 -4.8151 -1.7067 -1.4134 0.0000 0.0000 0.0000 -11.5960 -1.8355 21.8831 1.0769 -6.5963 -18.5248 -1.0925 18.6705 -11.8917 0.1277 -2.3039 -6.3464 0.0000 0.0000 0.0000 24.0845 10.7670 16.0502 0.0000 -0.0000 0.0000 -2.1953 -10.7228 -33.4892 -0.1458 -2.4611 6.7818 2.7835 1.3297 2.6514 0.5818 1.8906 -1.0592 -1.0509 0.9026 -2.5044 -0.3852 -2.4899 -12.5675 1.4796 -3.6373 17.7174 0.1786 -1.6245 7.5589 -0.0000 -0.0000 0.0000 -92.6766 9.9441 18.6013 18.6162 -28.9390 -4.8437 -0.0000 -0.0000 10.6213 5.0043 -27.8097 -2.3393 -7.1250 0.0000 -0.0000 -14.9341 2.8779 14.6803 -0.0000 -0.0000 0.0000 89.7195 -19.4094 23.6300 -24.5095 35.6984 -8.0019 0.0000 0.0000 6.8373 -7.7357 -29.7327 3.8542 7.1250 -0.0000 -0.0000 25.9521 -57.9954 -8.6329
-1.1253 18.1029 5.7827 -4.7659 -1.6842 -1.4151 0.0000 0.0000 0.0000 -11.6477 -1.8071 21.8512 1.0750 -6.5907 -18.5083 -1.0917 18.6554 -11.8462 0.1307 -2.3307 -6.4205 0.0000 0.0000 0.0000 24.0223 10.7512 16.0405 0.0000 0.0000 -0.0000 -2.1917 -10.7308 -33.4740 -0.1432 -2.4391 6.7208 2.7502 1.3302 2.6303 0.5443 1.8885 -1.0679 -1.0702 0.9018 -2.5012 -0.2495 -2.5324 -12.6361 1.3073 -3.6926 17.8283 0.0926 -1.6566 7.6019 0.0000 0.0000 0.0000 -91.8178 8.0916 20.4096 16.0917 -25.6448 -3.6856 -0.0000 -0.0000 8.9099 6.7166 -28.9496 -3.2625 -7.1250 0.0000 -0.0000 -13.9691 1.6022 13.9993 0.0000 0.0000 0.0000 89.7776 -19.4138 23.6726 -24.5791 35.7707 -8.0426 0.0000 0.0000 6.9082 -8.1632 -28.5696 3.9243 7.1250 -0.0000 -0.0000 24.6469 -57.0432 -7.5862
-1.1248 18.1035 5.7806 -4.7334 -1.6643 -1.4044 0.0000 0.0000 0.0000 -11.6920 -1.8578 21.8384 1.0741 -6.5879 -18.5000 -1.0913 18.6560 -11.8628 0.1255 -2.2834 -6.2897 0.0000 0.0000 0.0000 23.9774 10.7427 16.0174 0.0000 -0.0000 0.0000 -2.1929 -10.7175 -33.4719 -0.1417 -2.4260 6.6846 2.7131 1.3187 2.6324 0.5424 1.8720 -1.0742 -1.0508 0.8940 -2.5106 -0.3026 -2.5117 -12.6308 1.3552 -3.6620 17.8003 0.1204 -1.6413 7.5935 -0.0000 0.0000 0.0000 -91.8378 8.0682 20.3540 16.0630 -25.6060 -3.6731 -0.0000 -0.0000 8.9383 6.6275 -28.9932 -3.2234 -7.1250 0.0000 -0.0000 -14.0217 1.5694 14.0638 -0.0000 0.0000 0.0000 89.7157 -19.3554 23.8378 -24.6450 35.8389 -8.0811 0.0000 0.0000 6.8744 -8.0366 -28.4682 3.8503 7.1250 -0.0000 -0.0000 24.6991 -56.9255 -7.5321
-1.1252 18.1036 5.7783 -4.7388 -1.6372 -1.4068 0.0000 0.0000 0.0000 -11.6903 -1.9156 21.8513 1.0746 -6.5895 -18.5046 -1.0942 18.6758 -11.8608 0.1214 -2.2463 -6.1869 0.0000 0.0000 0.0000 23.9777 10.7182 16.0068 0.0000 -0.0000 0.0000 -2.2029 -10.6663 -33.4944 -0.1490 -2.4874 6.8547 2.7002 1.3099 2.6463 0.5576 1.8604 -1.0683 -1.0278 0.8886 -2.5137 -0.4261 -2.4983 -12.7402 1.4631 -3.6408 17.8699 0.1762 -1.6277 7.6402 0.0000 -0.0000 0.0000 -91.8679 8.0405 20.3067 16.0586 -25.6001 -3.6713 -0.0000 -0.0000 8.9345 6.5389 -28.9732 -3.1780 -7.1250 0.0000 -0.0000 -14.0721 1.5983 14.1102 0.0000 -0.0000 0.0000 89.6531 -19.2805 23.9161 -24.6406 35.8343 -8.0785 0.0000 0.0000 6.8893 -7.9436 -28.5512 3.8155 7.1250 -0.0000 -0.0000 24.8517 -56.9810 -7.6167
-1.1253 18.1036 5.7767 -4.7603 -1.6120 -1.4076 0.0000 0.0000 0.0000 -11.6610 -1.9167 21.8499 1.0764 -6.5948 -18.5203 -1.0938 18.6719 -11.8550 0.1215 -2.2471 -6.1892 0.0000 0.0000 0.0000 23.9950 10.6961 15.9938 0.0000 -0.0000 0.0000 -2.2137 -10.6012 -33.5125 -0.1659 -2.6244 7.2348 2.7080 1.3133 2.6431 0.5696 1.8654 -1.0637 -1.0199 0.8912 -2.5072 -0.4810 -2.4965 -12.8248 1.5089 -3.6368 17.9108 0.1993 -1.6241 7.6707 0.0000 0.0000 0.0000 -91.8951 8.0491 20.2586 16.0896 -25.6419 -3.6846 -0.0000 -0.0000 8.9697 6.5659 -28.9767 -3.1916 -7.1250 0.0000 -0.0000 -14.0566 1.5919 14.0953 0.0000 0.0000 0.0000 89.6306 -19.2153 23.9436 -24.6153 35.8082 -8.0638 0.0000 0.0000 6.9927 -8.0088 -28.5733 3.8498 7.1250 -0.0000 -0.0000 24.8031 -57.0144 -7.6209
-1.1254 18.1034 5.7749 -4.7964 -1.5940 -1.4054 0.0000 0.0000 0.0000 -11.6055 -1.8543 21.8202 1.0787 -6.6016 -18.5403 -1.0888 18.6198 -11.7726 0.1350 -2.3680 -6.5239 0.0000 0.0000 0.0000 24.0328 10.6812 15.9773 0.0000 0.0000 -0.0000 -2.2069 -10.6334 -33.4953 -0.1627 -2.5988 7.1637 2.7263 1.3152 2.6350 0.5864 1.8686 -1.0576 -1.0127 0.8928 -2.4962 -0.4769 -2.4925 -12.8170 1.4882 -3.6262 17.8389 0.1935 -1.6215 7.6450 0.0000 0.0000 0.0000 -91.9428 8.0422 20.1411 16.1088 -25.6680 -3.6930 -0.0000 -0.0000 9.0819 6.6194 -29.0175 -3.2219 -7.1250 0.0000 -0.0000 -14.0271 1.5467 14.0754 0.0000 0.0000 0.0000 89.5804 -19.1244 24.0587 -24.5804 35.7721 -8.0434 0.0000 0.0000 6.9749 -8.1476 -28.7233 3.9360 7.1250 -0.0000 -0.0000 24.7747 -57.1784 -7.7114
-1.1259 18.1031 5.7735 -4.8345 -1.5823 -1.4045 0.0000 0.0000 0.0000 -11.5554 -1.8484 21.8120 1.0803 -6.6065 -18.5547 -1.0908 18.6203 -11.7043 0.1352 -2.3695 -6.5281 0.0000 0.0000 0.0000 24.0779 10.6706 15.9635 0.0000 -0.0000 0.0000 -2.1935 -10.7167 -33.4748 -0.1492 -2.4887 6.8583 2.7463 1.3212 2.6144 0.6011 1.8766 -1.0441 -1.0084 0.8970 -2.4703 -0.4601 -2.4947 -12.7797 1.4498 -3.6226 17.7361 0.1797 -1.6235 7.6034 -0.0000 0.0000 0.0000 -91.9711 8.0278 20.1012 16.1283 -25.6943 -3.7014 -0.0000 -0.0000 9.1337 6.5470 -28.9945 -3.1841 -7.1250 0.0000 -0.0000 -14.0681 1.5767 14.1115 -0.0000 0.0000 0.0000 89.5548 -19.0315 24.1304 -24.5747 35.7661 -8.0400 0.0000 0.0000 6.9544 -8.2522 -28.9409 4.0146 7.1250 -0.0000 -0.0000 24.8313 -57.3963 -7.8636
